%TF.GenerationSoftware,KiCad,Pcbnew,10.0.3*%
%TF.CreationDate,2026-07-02T08:33:57-04:00*%
%TF.ProjectId,the next stop is,74686520-6e65-4787-9420-73746f702069,rev?*%
%TF.SameCoordinates,Original*%
%TF.FileFunction,Copper,L2,Bot*%
%TF.FilePolarity,Positive*%
%FSLAX46Y46*%
G04 Gerber Fmt 4.6, Leading zero omitted, Abs format (unit mm)*
G04 Created by KiCad (PCBNEW 10.0.3) date 2026-07-02 08:33:57*
%MOMM*%
%LPD*%
G01*
G04 APERTURE LIST*
G04 Aperture macros list*
%AMRoundRect*
0 Rectangle with rounded corners*
0 $1 Rounding radius*
0 $2 $3 $4 $5 $6 $7 $8 $9 X,Y pos of 4 corners*
0 Add a 4 corners polygon primitive as box body*
4,1,4,$2,$3,$4,$5,$6,$7,$8,$9,$2,$3,0*
0 Add four circle primitives for the rounded corners*
1,1,$1+$1,$2,$3*
1,1,$1+$1,$4,$5*
1,1,$1+$1,$6,$7*
1,1,$1+$1,$8,$9*
0 Add four rect primitives between the rounded corners*
20,1,$1+$1,$2,$3,$4,$5,0*
20,1,$1+$1,$4,$5,$6,$7,0*
20,1,$1+$1,$6,$7,$8,$9,0*
20,1,$1+$1,$8,$9,$2,$3,0*%
G04 Aperture macros list end*
%TA.AperFunction,ComponentPad*%
%ADD10C,1.600000*%
%TD*%
%TA.AperFunction,ComponentPad*%
%ADD11R,1.800000X1.800000*%
%TD*%
%TA.AperFunction,ComponentPad*%
%ADD12C,1.800000*%
%TD*%
%TA.AperFunction,SMDPad,CuDef*%
%ADD13RoundRect,0.152400X-1.063600X-0.609600X1.063600X-0.609600X1.063600X0.609600X-1.063600X0.609600X0*%
%TD*%
%TA.AperFunction,ComponentPad*%
%ADD14C,1.524000*%
%TD*%
%TA.AperFunction,SMDPad,CuDef*%
%ADD15RoundRect,0.152400X1.063600X0.609600X-1.063600X0.609600X-1.063600X-0.609600X1.063600X-0.609600X0*%
%TD*%
%TA.AperFunction,SMDPad,CuDef*%
%ADD16C,1.700000*%
%TD*%
%TA.AperFunction,ComponentPad*%
%ADD17RoundRect,0.275000X0.975000X0.275000X-0.975000X0.275000X-0.975000X-0.275000X0.975000X-0.275000X0*%
%TD*%
%TA.AperFunction,ViaPad*%
%ADD18C,0.600000*%
%TD*%
%TA.AperFunction,Conductor*%
%ADD19C,0.200000*%
%TD*%
G04 APERTURE END LIST*
D10*
%TO.P,R4,2*%
%TO.N,Net-(U1-GPIO20_D7_RX)*%
X157100000Y-96570000D03*
%TO.P,R4,1*%
%TO.N,Net-(D4-A)*%
X146600000Y-96570000D03*
%TD*%
D11*
%TO.P,D4,1,K_1*%
%TO.N,GND*%
X141260000Y-96580000D03*
D12*
%TO.P,D4,2,A_2*%
%TO.N,Net-(D4-A)*%
X143800000Y-96580000D03*
%TD*%
D10*
%TO.P,R3,2*%
%TO.N,Net-(U1-GPIO21_D6_TX)*%
X178170000Y-84855000D03*
%TO.P,R3,1*%
%TO.N,Net-(D3-A)*%
X167670000Y-84855000D03*
%TD*%
%TO.P,SW4,1,1_1*%
%TO.N,GND*%
X140090000Y-99550000D03*
X144890000Y-99550000D03*
%TO.P,SW4,2,2_2*%
%TO.N,Net-(U1-GPIO5_A3_D3)*%
X140090000Y-102550000D03*
X144890000Y-102550000D03*
%TD*%
D11*
%TO.P,D3,1,K_1*%
%TO.N,GND*%
X162610000Y-84855000D03*
D12*
%TO.P,D3,2,A_2*%
%TO.N,Net-(D3-A)*%
X165150000Y-84855000D03*
%TD*%
D10*
%TO.P,R2,1*%
%TO.N,Net-(D2-A)*%
X205090000Y-84470000D03*
%TO.P,R2,2*%
%TO.N,Net-(U1-GPIO7_D5_SCL)*%
X194590000Y-84470000D03*
%TD*%
%TO.P,R1,1*%
%TO.N,Net-(D1-A)*%
X190910000Y-95820000D03*
%TO.P,R1,2*%
%TO.N,Net-(U1-GPIO6_D4_SDA)*%
X201410000Y-95820000D03*
%TD*%
D11*
%TO.P,D2,1,K_1*%
%TO.N,GND*%
X210400000Y-84470000D03*
D12*
%TO.P,D2,2,A_2*%
%TO.N,Net-(D2-A)*%
X207860000Y-84470000D03*
%TD*%
D11*
%TO.P,D1,1,K_1*%
%TO.N,GND*%
X185960000Y-95820000D03*
D12*
%TO.P,D1,2,A_2*%
%TO.N,Net-(D1-A)*%
X188500000Y-95820000D03*
%TD*%
D13*
%TO.P,U1,1,GPIO2_A0_D0_1*%
%TO.N,Net-(U1-GPIO2_A0_D0)*%
X151445000Y-67980000D03*
D14*
X150610000Y-67980000D03*
D13*
%TO.P,U1,2,GPIO3_A1_D1_2*%
%TO.N,Net-(U1-GPIO3_A1_D1)*%
X151445000Y-70520000D03*
D14*
X150610000Y-70520000D03*
D13*
%TO.P,U1,3,GPIO4_A2_D2_3*%
%TO.N,Net-(U1-GPIO4_A2_D2)*%
X151445000Y-73060000D03*
D14*
X150610000Y-73060000D03*
D13*
%TO.P,U1,4,GPIO5_A3_D3_4*%
%TO.N,Net-(U1-GPIO5_A3_D3)*%
X151445000Y-75600000D03*
D14*
X150610000Y-75600000D03*
D13*
%TO.P,U1,5,GPIO6_D4_SDA_5*%
%TO.N,Net-(U1-GPIO6_D4_SDA)*%
X151445000Y-78140000D03*
D14*
X150610000Y-78140000D03*
D13*
%TO.P,U1,6,GPIO7_D5_SCL_6*%
%TO.N,Net-(U1-GPIO7_D5_SCL)*%
X151445000Y-80680000D03*
D14*
X150610000Y-80680000D03*
D13*
%TO.P,U1,7,GPIO21_D6_TX_7*%
%TO.N,Net-(U1-GPIO21_D6_TX)*%
X151445000Y-83220000D03*
D14*
X150610000Y-83220000D03*
%TO.P,U1,8,GPIO20_D7_RX_8*%
%TO.N,Net-(U1-GPIO20_D7_RX)*%
X135370000Y-83220000D03*
D15*
X134535000Y-83220000D03*
D14*
%TO.P,U1,9,GPIO8_D8_SCK_9*%
%TO.N,unconnected-(U1-GPIO8_D8_SCK-Pad9)*%
X135370000Y-80680000D03*
D15*
%TO.N,unconnected-(U1-GPIO8_D8_SCK-Pad9)_1*%
X134535000Y-80680000D03*
D14*
%TO.P,U1,10,GPIO9_D9_MISO_10*%
%TO.N,unconnected-(U1-GPIO9_D9_MISO-Pad10)*%
X135370000Y-78140000D03*
D15*
%TO.N,unconnected-(U1-GPIO9_D9_MISO-Pad10)_1*%
X134535000Y-78140000D03*
D14*
%TO.P,U1,11,GPIO10_D10_MOSI_11*%
%TO.N,unconnected-(U1-GPIO10_D10_MOSI-Pad11)_1*%
X135370000Y-75600000D03*
D15*
%TO.N,unconnected-(U1-GPIO10_D10_MOSI-Pad11)*%
X134535000Y-75600000D03*
D14*
%TO.P,U1,12,3V3_12*%
%TO.N,+3V3*%
X135370000Y-73060000D03*
D15*
X134535000Y-73060000D03*
D14*
%TO.P,U1,13,GND_13*%
%TO.N,GND*%
X135370000Y-70520000D03*
D15*
X134535000Y-70520000D03*
D14*
%TO.P,U1,14,VBUS_14*%
%TO.N,+5V*%
X135370000Y-67980000D03*
D15*
X134535000Y-67980000D03*
D16*
%TO.P,U1,15,GPIO5_MTDI_15*%
%TO.N,unconnected-(U1-GPIO5_MTDI-Pad15)*%
X144260000Y-66964000D03*
%TO.P,U1,16,GPIO7_MTDO_16*%
%TO.N,unconnected-(U1-GPIO7_MTDO-Pad16)*%
X141720000Y-66964000D03*
%TO.P,U1,17,CHIP_EN_17*%
%TO.N,unconnected-(U1-CHIP_EN-Pad17)*%
X144260000Y-69504000D03*
%TO.P,U1,18,GND_18*%
%TO.N,unconnected-(U1-GND-Pad18)*%
X141720000Y-69504000D03*
%TO.P,U1,19,GPIO4_MTMS_19*%
%TO.N,unconnected-(U1-GPIO4_MTMS-Pad19)*%
X144260000Y-72044000D03*
%TO.P,U1,20,GPIO6_MTCK_20*%
%TO.N,unconnected-(U1-GPIO6_MTCK-Pad20)*%
X141720000Y-72044000D03*
D17*
%TO.P,U1,21,BAT_21*%
%TO.N,+BATT*%
X147435000Y-75214000D03*
%TO.P,U1,22,GND_22*%
%TO.N,GND*%
X147435000Y-73309000D03*
%TD*%
D10*
%TO.P,SW3,1,1_1*%
%TO.N,GND*%
X206720000Y-87570000D03*
X211520000Y-87570000D03*
%TO.P,SW3,2,2_2*%
%TO.N,Net-(U1-GPIO3_A1_D1)*%
X206720000Y-90570000D03*
X211520000Y-90570000D03*
%TD*%
%TO.P,SW2,1,1_1*%
%TO.N,GND*%
X184830000Y-98910000D03*
X189630000Y-98910000D03*
%TO.P,SW2,2,2_2*%
%TO.N,Net-(U1-GPIO2_A0_D0)*%
X184830000Y-101910000D03*
X189630000Y-101910000D03*
%TD*%
%TO.P,SW1,1,1_1*%
%TO.N,GND*%
X161510000Y-87990000D03*
X166310000Y-87990000D03*
%TO.P,SW1,2,2_2*%
%TO.N,Net-(U1-GPIO4_A2_D2)*%
X161510000Y-90990000D03*
X166310000Y-90990000D03*
%TD*%
D18*
%TO.N,Net-(U1-GPIO2_A0_D0)*%
X179930000Y-91360000D03*
%TO.N,Net-(U1-GPIO20_D7_RX)*%
X148630000Y-90890000D03*
%TD*%
%TO.N,GND*%
D19*
X189050000Y-98910000D02*
X185960000Y-95820000D01*
X189630000Y-98910000D02*
X189050000Y-98910000D01*
X184830000Y-96950000D02*
X185960000Y-95820000D01*
X184830000Y-98910000D02*
X184830000Y-96950000D01*
%TO.N,Net-(U1-GPIO2_A0_D0)*%
X184830000Y-101910000D02*
X189630000Y-101910000D01*
%TO.N,GND*%
X211520000Y-85590000D02*
X210400000Y-84470000D01*
X211520000Y-87570000D02*
X211520000Y-85590000D01*
X206720000Y-87570000D02*
X211520000Y-87570000D01*
X205620000Y-93165635D02*
X205620000Y-88670000D01*
X205620000Y-88670000D02*
X206720000Y-87570000D01*
X189630000Y-98910000D02*
X199875635Y-98910000D01*
X199875635Y-98910000D02*
X205620000Y-93165635D01*
%TO.N,Net-(U1-GPIO2_A0_D0)*%
X156550000Y-67980000D02*
X179930000Y-91360000D01*
X150610000Y-67980000D02*
X156550000Y-67980000D01*
%TO.N,Net-(U1-GPIO6_D4_SDA)*%
X197680000Y-92090000D02*
X201410000Y-95820000D01*
X151510000Y-78140000D02*
X152961000Y-79591000D01*
X152961000Y-83996635D02*
X161054365Y-92090000D01*
X161054365Y-92090000D02*
X197680000Y-92090000D01*
X150610000Y-78140000D02*
X151510000Y-78140000D01*
X152961000Y-79591000D02*
X152961000Y-83996635D01*
%TO.N,Net-(U1-GPIO4_A2_D2)*%
X160410000Y-81782370D02*
X151687630Y-73060000D01*
X151687630Y-73060000D02*
X150610000Y-73060000D01*
X160410000Y-89890000D02*
X160410000Y-81782370D01*
X161510000Y-90990000D02*
X160410000Y-89890000D01*
%TO.N,Net-(U1-GPIO20_D7_RX)*%
X154310000Y-96570000D02*
X148630000Y-90890000D01*
X157100000Y-96570000D02*
X154310000Y-96570000D01*
%TO.N,GND*%
X141920000Y-96580000D02*
X141260000Y-96580000D01*
X144890000Y-99550000D02*
X141920000Y-96580000D01*
X140090000Y-97750000D02*
X141260000Y-96580000D01*
X140090000Y-99550000D02*
X140090000Y-97750000D01*
%TO.N,Net-(U1-GPIO5_A3_D3)*%
X140090000Y-102550000D02*
X144890000Y-102550000D01*
X147700000Y-99740000D02*
X144890000Y-102550000D01*
X150610000Y-75600000D02*
X147700000Y-78510000D01*
X147700000Y-78510000D02*
X147700000Y-99740000D01*
%TD*%
M02*
