%TF.GenerationSoftware,KiCad,Pcbnew,10.0.3*%
%TF.CreationDate,2026-07-02T08:33:57-04:00*%
%TF.ProjectId,the next stop is,74686520-6e65-4787-9420-73746f702069,rev?*%
%TF.SameCoordinates,Original*%
%TF.FileFunction,Legend,Bot*%
%TF.FilePolarity,Positive*%
%FSLAX46Y46*%
G04 Gerber Fmt 4.6, Leading zero omitted, Abs format (unit mm)*
G04 Created by KiCad (PCBNEW 10.0.3) date 2026-07-02 08:33:57*
%MOMM*%
%LPD*%
G01*
G04 APERTURE LIST*
%ADD10C,0.300000*%
%ADD11C,0.150000*%
%ADD12C,0.101600*%
%ADD13C,0.060000*%
%ADD14C,0.250000*%
%ADD15C,0.127000*%
%ADD16C,0.100000*%
%ADD17C,0.504000*%
G04 APERTURE END LIST*
D10*
G36*
X209965792Y-101030750D02*
G01*
X209746798Y-102141749D01*
X209544107Y-101030750D01*
X209235170Y-101030750D01*
X209235170Y-101102282D01*
X209295529Y-101102282D01*
X209324509Y-101110161D01*
X209342605Y-101133754D01*
X209350026Y-101181325D01*
X209350026Y-102461036D01*
X209344214Y-102492798D01*
X209329274Y-102509567D01*
X209303681Y-102515532D01*
X209235170Y-102515532D01*
X209235170Y-102587065D01*
X209610144Y-102587065D01*
X209610144Y-102515532D01*
X209574424Y-102515532D01*
X209543486Y-102509140D01*
X209526320Y-102491973D01*
X209519927Y-102461036D01*
X209516996Y-101263391D01*
X209735990Y-102554184D01*
X209806516Y-102554184D01*
X210050148Y-101337213D01*
X210047217Y-102454899D01*
X210041161Y-102490841D01*
X210026018Y-102509206D01*
X210000963Y-102515532D01*
X209948848Y-102515532D01*
X209948848Y-102587065D01*
X210217210Y-102587065D01*
X210217210Y-102515532D01*
X210173246Y-102515532D01*
X210141542Y-102508628D01*
X210123561Y-102489722D01*
X210116734Y-102454899D01*
X210116734Y-101148536D01*
X210122817Y-101123165D01*
X210140110Y-101108172D01*
X210173246Y-101102282D01*
X210217210Y-101102282D01*
X210217210Y-101030750D01*
X209965792Y-101030750D01*
G37*
G36*
X208804498Y-101533536D02*
G01*
X208905317Y-101563990D01*
X208994469Y-101613727D01*
X209053082Y-101667481D01*
X209084284Y-101719510D01*
X209094120Y-101771996D01*
X209087956Y-101815001D01*
X209070673Y-101847834D01*
X209028488Y-101873373D01*
X208984486Y-101881539D01*
X208939396Y-101874529D01*
X208902695Y-101854245D01*
X208875590Y-101820705D01*
X208866700Y-101780148D01*
X208871705Y-101750600D01*
X208886300Y-101726659D01*
X208903843Y-101714181D01*
X208907732Y-101706325D01*
X208896381Y-101676171D01*
X208849480Y-101630854D01*
X208808508Y-101607646D01*
X208761059Y-101593296D01*
X208705591Y-101588265D01*
X208625173Y-101597441D01*
X208568536Y-101621882D01*
X208529298Y-101659808D01*
X208504498Y-101713427D01*
X208495298Y-101788391D01*
X208495298Y-101937410D01*
X208631720Y-101951835D01*
X208744769Y-101973426D01*
X208837665Y-102000882D01*
X208937776Y-102033422D01*
X209013722Y-102075781D01*
X209070095Y-102127062D01*
X209109971Y-102187781D01*
X209134610Y-102259818D01*
X209143305Y-102346181D01*
X209134893Y-102417777D01*
X209110699Y-102478491D01*
X209070581Y-102530828D01*
X209020589Y-102566439D01*
X208959887Y-102593539D01*
X208886392Y-102611612D01*
X208793564Y-102602336D01*
X208698459Y-102573737D01*
X208599427Y-102523649D01*
X208495023Y-102448671D01*
X208483600Y-102518568D01*
X208459969Y-102561754D01*
X208425732Y-102586450D01*
X208377512Y-102595217D01*
X208330322Y-102588283D01*
X208287748Y-102567528D01*
X208248169Y-102531148D01*
X208211045Y-102475117D01*
X208176927Y-102393625D01*
X208231607Y-102375398D01*
X208264731Y-102444898D01*
X208290674Y-102474963D01*
X208311841Y-102482743D01*
X208326260Y-102477149D01*
X208336865Y-102457424D01*
X208341700Y-102411851D01*
X208341700Y-102363400D01*
X208495298Y-102363400D01*
X208572867Y-102427555D01*
X208641386Y-102470836D01*
X208727666Y-102505461D01*
X208795808Y-102515532D01*
X208853215Y-102509460D01*
X208899577Y-102492436D01*
X208937316Y-102465066D01*
X208965942Y-102425941D01*
X208983567Y-102378875D01*
X208989798Y-102321634D01*
X208981567Y-102261118D01*
X208956582Y-102203549D01*
X208912678Y-102147245D01*
X208866092Y-102111915D01*
X208789065Y-102077017D01*
X208670059Y-102043992D01*
X208495298Y-102015262D01*
X208495298Y-102363400D01*
X208341700Y-102363400D01*
X208341700Y-101821181D01*
X208347763Y-101746690D01*
X208364398Y-101687964D01*
X208390136Y-101641773D01*
X208424773Y-101605758D01*
X208468236Y-101571962D01*
X208524599Y-101546162D01*
X208596958Y-101529195D01*
X208689196Y-101522960D01*
X208804498Y-101533536D01*
G37*
G36*
X207403005Y-101051183D02*
G01*
X207505710Y-101073017D01*
X207601827Y-101080026D01*
X207601827Y-101151467D01*
X207516922Y-101151467D01*
X207477590Y-101160453D01*
X207454824Y-101185522D01*
X207446031Y-101232616D01*
X207446031Y-101634426D01*
X207494895Y-101586517D01*
X207553050Y-101552086D01*
X207622371Y-101530582D01*
X207705600Y-101522960D01*
X207778081Y-101531472D01*
X207847065Y-101557104D01*
X207914203Y-101601374D01*
X207980556Y-101667491D01*
X208031329Y-101741264D01*
X208069264Y-101830339D01*
X208093567Y-101937759D01*
X208102281Y-102067286D01*
X208092708Y-102204195D01*
X208066209Y-102315591D01*
X208025114Y-102406088D01*
X207970298Y-102479354D01*
X207916236Y-102533880D01*
X207855180Y-102572104D01*
X207785710Y-102595379D01*
X207705600Y-102603460D01*
X207618224Y-102595594D01*
X207543926Y-102573221D01*
X207480194Y-102537148D01*
X207446031Y-102504267D01*
X207446031Y-102587065D01*
X207136636Y-102587065D01*
X207136636Y-102515532D01*
X207221541Y-102515532D01*
X207249968Y-102508976D01*
X207271124Y-102489346D01*
X207286218Y-102451951D01*
X207292432Y-102387213D01*
X207292432Y-101758349D01*
X207446031Y-101758349D01*
X207446031Y-102378329D01*
X207473989Y-102422275D01*
X207500344Y-102450686D01*
X207553319Y-102486943D01*
X207610256Y-102508308D01*
X207672718Y-102515532D01*
X207742377Y-102505921D01*
X207801215Y-102478015D01*
X207851999Y-102430627D01*
X207895651Y-102359370D01*
X207923958Y-102278683D01*
X207942162Y-102182281D01*
X207948682Y-102067286D01*
X207940662Y-101922971D01*
X207919390Y-101815289D01*
X207888216Y-101736566D01*
X207849166Y-101680418D01*
X207802682Y-101642103D01*
X207747524Y-101618983D01*
X207680962Y-101610887D01*
X207609492Y-101620041D01*
X207547944Y-101646674D01*
X207493821Y-101691623D01*
X207446031Y-101758349D01*
X207292432Y-101758349D01*
X207292432Y-101012889D01*
X207403005Y-101051183D01*
G37*
G36*
X206648430Y-101533187D02*
G01*
X206738570Y-101563294D01*
X206822204Y-101613818D01*
X206870103Y-101661266D01*
X206918955Y-101731403D01*
X206968658Y-101830248D01*
X206996961Y-101908648D01*
X207014228Y-101992783D01*
X207020132Y-102083681D01*
X207012401Y-102189172D01*
X206990156Y-102282650D01*
X206954187Y-102366056D01*
X206912093Y-102432008D01*
X206860752Y-102488847D01*
X206799489Y-102537331D01*
X206727969Y-102573574D01*
X206648061Y-102595775D01*
X206557872Y-102603460D01*
X206474682Y-102595635D01*
X206400176Y-102572858D01*
X206332558Y-102535225D01*
X206254328Y-102469740D01*
X206189022Y-102395774D01*
X206135729Y-102312658D01*
X206179326Y-102278220D01*
X206221323Y-102337277D01*
X206271247Y-102387616D01*
X206329719Y-102429895D01*
X206394279Y-102464292D01*
X206459031Y-102484288D01*
X206525082Y-102490894D01*
X206609103Y-102482981D01*
X206679505Y-102460578D01*
X206746118Y-102408454D01*
X206797425Y-102346429D01*
X206834802Y-102273226D01*
X206858297Y-102186630D01*
X206866625Y-102083681D01*
X206860947Y-102006653D01*
X206119700Y-102006653D01*
X206134681Y-101933105D01*
X206282183Y-101933105D01*
X206851513Y-101933105D01*
X206833927Y-101862946D01*
X206807954Y-101794213D01*
X206771465Y-101733498D01*
X206724018Y-101679764D01*
X206666419Y-101635656D01*
X206608838Y-101610768D01*
X206549629Y-101602644D01*
X206476643Y-101611438D01*
X206417539Y-101636307D01*
X206369040Y-101677117D01*
X206329645Y-101736520D01*
X206299877Y-101819554D01*
X206282183Y-101933105D01*
X206134681Y-101933105D01*
X206149033Y-101862646D01*
X206190326Y-101751438D01*
X206241494Y-101666878D01*
X206301750Y-101604088D01*
X206371702Y-101559773D01*
X206453305Y-101532521D01*
X206549629Y-101522960D01*
X206648430Y-101533187D01*
G37*
G36*
X204770194Y-101054691D02*
G01*
X204864681Y-101079791D01*
X204962630Y-101088177D01*
X204962630Y-101151467D01*
X204885877Y-101151467D01*
X204856472Y-101159010D01*
X204838577Y-101181051D01*
X204831380Y-101224465D01*
X204831380Y-102587065D01*
X204753070Y-102587065D01*
X204688681Y-102494375D01*
X204630841Y-102541760D01*
X204566118Y-102575526D01*
X204493151Y-102596259D01*
X204410061Y-102603460D01*
X204327780Y-102596138D01*
X204256351Y-102575140D01*
X204193723Y-102541032D01*
X204138438Y-102493179D01*
X204089767Y-102429803D01*
X204050724Y-102355406D01*
X204021739Y-102270056D01*
X204003434Y-102171987D01*
X203996986Y-102059134D01*
X204150492Y-102059134D01*
X204158874Y-102205650D01*
X204181148Y-102315323D01*
X204213896Y-102395853D01*
X204255111Y-102453613D01*
X204304457Y-102493273D01*
X204363341Y-102517336D01*
X204434699Y-102525791D01*
X204504632Y-102516375D01*
X204567203Y-102488474D01*
X204624634Y-102440443D01*
X204677874Y-102367979D01*
X204677874Y-101805519D01*
X204632669Y-101732730D01*
X204590587Y-101683886D01*
X204532783Y-101637108D01*
X204475943Y-101611063D01*
X204418305Y-101602644D01*
X204351717Y-101610742D01*
X204296539Y-101633868D01*
X204250039Y-101672193D01*
X204210977Y-101728353D01*
X204179793Y-101807092D01*
X204158515Y-101914794D01*
X204150492Y-102059134D01*
X203996986Y-102059134D01*
X204004702Y-101934314D01*
X204026226Y-101830306D01*
X204059741Y-101743737D01*
X204104330Y-101671796D01*
X204166834Y-101604156D01*
X204232294Y-101558585D01*
X204301808Y-101531924D01*
X204377272Y-101522960D01*
X204460814Y-101532590D01*
X204537539Y-101561154D01*
X204609487Y-101609755D01*
X204677874Y-101681504D01*
X204677874Y-101012248D01*
X204770194Y-101054691D01*
G37*
G36*
X203538389Y-101539355D02*
G01*
X203538389Y-101610887D01*
X203574110Y-101610887D01*
X203611252Y-101617187D01*
X203630279Y-101632970D01*
X203636850Y-101659156D01*
X203615147Y-101737688D01*
X203424450Y-102350943D01*
X203224140Y-101730047D01*
X203211708Y-101686019D01*
X203207929Y-101648898D01*
X203213816Y-101629166D01*
X203232171Y-101616317D01*
X203270577Y-101610887D01*
X203339179Y-101610887D01*
X203339179Y-101539355D01*
X202980600Y-101539355D01*
X202980600Y-101610887D01*
X203016320Y-101610887D01*
X203057779Y-101618902D01*
X203097333Y-101644070D01*
X203136671Y-101691213D01*
X203448264Y-102691662D01*
X203475715Y-102758806D01*
X203508930Y-102808739D01*
X203547548Y-102844711D01*
X203591473Y-102878138D01*
X203648254Y-102899300D01*
X203721755Y-102906993D01*
X203790900Y-102899050D01*
X203832644Y-102879135D01*
X203855977Y-102849588D01*
X203864179Y-102807616D01*
X203858628Y-102767110D01*
X203844192Y-102741471D01*
X203821463Y-102726218D01*
X203787425Y-102720605D01*
X203745211Y-102728665D01*
X203703162Y-102754310D01*
X203670375Y-102787217D01*
X203639781Y-102796534D01*
X203605388Y-102787659D01*
X203571272Y-102758061D01*
X203535825Y-102697890D01*
X203499280Y-102586149D01*
X203798416Y-101682512D01*
X203814294Y-101641385D01*
X203839890Y-101618809D01*
X203877643Y-101610887D01*
X203913363Y-101610887D01*
X203913363Y-101539355D01*
X203538389Y-101539355D01*
G37*
G36*
X201377115Y-101014355D02*
G01*
X201283925Y-101023600D01*
X201193566Y-101051449D01*
X201146567Y-101067424D01*
X201114615Y-101071782D01*
X201073955Y-101065656D01*
X201032880Y-101046479D01*
X200990051Y-101011607D01*
X200873089Y-101462785D01*
X200944347Y-101471669D01*
X201002831Y-101340368D01*
X201067961Y-101242302D01*
X201139070Y-101171342D01*
X201211857Y-101123295D01*
X201287871Y-101095262D01*
X201368963Y-101085887D01*
X201428372Y-101094545D01*
X201478001Y-101119688D01*
X201520363Y-101162641D01*
X201545957Y-101208517D01*
X201563536Y-101270623D01*
X201571105Y-101353608D01*
X201565183Y-101420299D01*
X201545923Y-101480157D01*
X201513178Y-101534789D01*
X201465500Y-101585242D01*
X201397339Y-101633834D01*
X201236339Y-101726384D01*
X201061971Y-101830783D01*
X200971092Y-101901140D01*
X200916893Y-101965028D01*
X200879291Y-102032701D01*
X200856816Y-102105233D01*
X200849184Y-102184156D01*
X200856893Y-102269776D01*
X200879345Y-102346817D01*
X200916382Y-102416998D01*
X200968985Y-102481552D01*
X201031667Y-102535037D01*
X201100476Y-102572702D01*
X201176720Y-102595580D01*
X201262260Y-102603460D01*
X201375783Y-102594946D01*
X201458265Y-102572502D01*
X201516026Y-102552988D01*
X201549398Y-102548047D01*
X201584466Y-102553887D01*
X201620018Y-102572346D01*
X201657383Y-102606482D01*
X201807501Y-102091557D01*
X201736060Y-102080383D01*
X201678319Y-102215171D01*
X201607145Y-102326597D01*
X201522745Y-102417805D01*
X201461308Y-102466121D01*
X201398045Y-102499435D01*
X201332087Y-102519162D01*
X201262260Y-102525791D01*
X201196573Y-102517611D01*
X201141412Y-102494092D01*
X201094282Y-102454899D01*
X201053128Y-102396913D01*
X201027987Y-102328823D01*
X201019177Y-102247812D01*
X201025805Y-102180913D01*
X201045097Y-102121303D01*
X201077055Y-102067410D01*
X201122858Y-102018193D01*
X201192702Y-101965486D01*
X201349821Y-101875036D01*
X201474903Y-101803299D01*
X201561899Y-101743595D01*
X201619190Y-101694144D01*
X201673016Y-101630335D01*
X201710625Y-101561714D01*
X201733269Y-101487120D01*
X201741006Y-101404899D01*
X201734022Y-101322926D01*
X201713745Y-101249422D01*
X201680478Y-101182799D01*
X201633570Y-101121883D01*
X201580484Y-101074963D01*
X201521003Y-101041738D01*
X201453834Y-101021410D01*
X201377115Y-101014355D01*
G37*
G36*
X200381240Y-101532527D02*
G01*
X200471358Y-101560149D01*
X200551485Y-101605409D01*
X200623320Y-101669506D01*
X200680129Y-101746163D01*
X200721811Y-101836180D01*
X200748095Y-101942124D01*
X200757410Y-102067286D01*
X200747396Y-102202359D01*
X200719508Y-102313345D01*
X200675885Y-102404607D01*
X200617092Y-102479537D01*
X200550592Y-102532541D01*
X200473498Y-102570982D01*
X200383763Y-102594999D01*
X200278663Y-102603460D01*
X200180259Y-102595246D01*
X200093761Y-102571612D01*
X200017030Y-102533213D01*
X199948477Y-102479537D01*
X199885566Y-102402118D01*
X199839453Y-102309762D01*
X199810298Y-102199470D01*
X199799917Y-102067286D01*
X199953423Y-102067286D01*
X199961271Y-102202631D01*
X199982077Y-102303583D01*
X200012615Y-102377479D01*
X200051059Y-102430353D01*
X200115847Y-102483234D01*
X200190661Y-102514848D01*
X200278663Y-102525791D01*
X200362098Y-102516079D01*
X200430959Y-102488464D01*
X200488559Y-102443144D01*
X200536584Y-102377596D01*
X200572330Y-102294712D01*
X200595449Y-102192663D01*
X200603811Y-102067286D01*
X200595492Y-101941988D01*
X200572408Y-101839156D01*
X200536584Y-101754869D01*
X200488313Y-101687275D01*
X200430594Y-101640771D01*
X200361814Y-101612547D01*
X200278663Y-101602644D01*
X200208574Y-101610179D01*
X200144536Y-101632407D01*
X200084951Y-101669877D01*
X200028803Y-101724552D01*
X199998601Y-101781871D01*
X199974944Y-101855578D01*
X199959210Y-101949316D01*
X199953423Y-102067286D01*
X199799917Y-102067286D01*
X199808080Y-101957340D01*
X199831705Y-101858659D01*
X199870147Y-101769398D01*
X199923656Y-101688099D01*
X199997593Y-101615345D01*
X200080054Y-101564477D01*
X200172821Y-101533625D01*
X200278663Y-101522960D01*
X200381240Y-101532527D01*
G37*
G36*
X199502476Y-101562386D02*
G01*
X199599449Y-101587947D01*
X199708142Y-101596782D01*
X199708142Y-101670330D01*
X199664179Y-101670330D01*
X199605989Y-101678848D01*
X199577817Y-101699216D01*
X199568649Y-101730963D01*
X199568649Y-102731779D01*
X199576027Y-102768263D01*
X199597230Y-102794235D01*
X199635655Y-102811951D01*
X199699899Y-102819065D01*
X199699899Y-102892613D01*
X199259255Y-102892613D01*
X199259255Y-102819065D01*
X199337734Y-102811452D01*
X199383179Y-102792931D01*
X199407121Y-102766888D01*
X199415143Y-102731779D01*
X199415143Y-102490986D01*
X199359031Y-102541471D01*
X199300481Y-102576083D01*
X199238578Y-102596557D01*
X199171968Y-102603460D01*
X199083772Y-102595728D01*
X199007551Y-102573606D01*
X198941068Y-102537782D01*
X198882724Y-102487689D01*
X198827708Y-102413352D01*
X198786588Y-102322342D01*
X198760164Y-102211190D01*
X198750649Y-102075529D01*
X198904156Y-102075529D01*
X198910425Y-102198225D01*
X198927249Y-102292795D01*
X198952191Y-102364611D01*
X198983657Y-102418263D01*
X199037995Y-102473051D01*
X199099821Y-102504746D01*
X199171968Y-102515532D01*
X199243533Y-102507538D01*
X199301300Y-102485062D01*
X199348373Y-102448671D01*
X199382521Y-102414240D01*
X199415143Y-102367979D01*
X199415143Y-101791047D01*
X199387067Y-101739898D01*
X199362661Y-101710447D01*
X199301942Y-101653350D01*
X199239128Y-101621378D01*
X199171968Y-101610887D01*
X199103237Y-101621046D01*
X199045424Y-101650665D01*
X198995648Y-101701546D01*
X198953249Y-101779232D01*
X198927201Y-101859701D01*
X198910268Y-101957405D01*
X198904156Y-102075529D01*
X198750649Y-102075529D01*
X198758762Y-101946766D01*
X198781443Y-101839068D01*
X198816858Y-101749025D01*
X198864131Y-101673811D01*
X198927888Y-101604490D01*
X198992785Y-101558388D01*
X199059872Y-101531793D01*
X199130935Y-101522960D01*
X199205617Y-101531415D01*
X199276899Y-101556860D01*
X199346383Y-101600683D01*
X199415143Y-101665842D01*
X199415143Y-101520670D01*
X199502476Y-101562386D01*
G37*
G36*
X198423303Y-101012523D02*
G01*
X198423303Y-101692220D01*
X198345302Y-101614949D01*
X198266045Y-101563082D01*
X198184281Y-101532977D01*
X198098063Y-101522960D01*
X198013685Y-101531084D01*
X197942917Y-101554118D01*
X197883007Y-101591287D01*
X197837679Y-101642293D01*
X197809805Y-101706615D01*
X197799842Y-101788391D01*
X197799842Y-102461036D01*
X197790981Y-102488829D01*
X197762512Y-102507486D01*
X197701382Y-102515532D01*
X197701382Y-102587065D01*
X198076448Y-102587065D01*
X198076448Y-102515532D01*
X197997789Y-102506850D01*
X197963301Y-102487620D01*
X197953349Y-102461036D01*
X197953349Y-101788391D01*
X197959647Y-101728425D01*
X197976815Y-101683126D01*
X198003724Y-101648989D01*
X198032987Y-101629107D01*
X198074089Y-101615879D01*
X198130944Y-101610887D01*
X198185954Y-101617122D01*
X198241045Y-101636250D01*
X198297365Y-101669781D01*
X198362536Y-101730000D01*
X198423303Y-101817883D01*
X198423303Y-102461036D01*
X198413614Y-102487900D01*
X198380633Y-102506997D01*
X198306433Y-102515532D01*
X198306433Y-102587065D01*
X198683422Y-102587065D01*
X198683422Y-102515532D01*
X198615095Y-102507205D01*
X198584123Y-102488296D01*
X198574795Y-102461036D01*
X198574795Y-101189569D01*
X198580251Y-101164821D01*
X198595266Y-101150711D01*
X198623063Y-101145330D01*
X198683422Y-101145330D01*
X198683422Y-101071782D01*
X198589064Y-101064963D01*
X198502803Y-101045084D01*
X198423303Y-101012523D01*
G37*
G36*
X197070503Y-101521678D02*
G01*
X197070503Y-102395457D01*
X197063662Y-102445496D01*
X197045595Y-102478515D01*
X197016922Y-102499412D01*
X196972621Y-102510503D01*
X196881825Y-102515532D01*
X196881825Y-102587065D01*
X197404535Y-102587065D01*
X197404535Y-102515532D01*
X197322564Y-102510074D01*
X197277773Y-102497397D01*
X197248521Y-102474431D01*
X197230586Y-102441629D01*
X197224009Y-102395457D01*
X197224009Y-101749465D01*
X197230338Y-101712316D01*
X197247767Y-101686875D01*
X197277407Y-101670147D01*
X197310784Y-101664699D01*
X197388049Y-101662087D01*
X197388049Y-101588631D01*
X197294593Y-101581882D01*
X197189396Y-101560349D01*
X197070503Y-101521678D01*
G37*
G36*
X197147256Y-101014355D02*
G01*
X197097460Y-101021844D01*
X197065099Y-101041741D01*
X197045203Y-101074102D01*
X197037713Y-101123898D01*
X197045684Y-101166755D01*
X197069312Y-101201933D01*
X197106020Y-101227302D01*
X197147256Y-101235547D01*
X197190009Y-101227110D01*
X197225292Y-101201842D01*
X197248845Y-101166747D01*
X197256799Y-101123898D01*
X197248849Y-101081128D01*
X197225292Y-101046045D01*
X197191555Y-101022509D01*
X197147256Y-101014355D01*
G37*
G36*
X195048722Y-102353508D02*
G01*
X194994303Y-102362644D01*
X194950353Y-102389228D01*
X194923918Y-102430120D01*
X194914541Y-102485674D01*
X194924506Y-102538052D01*
X194954383Y-102582119D01*
X194998085Y-102612014D01*
X195048722Y-102621870D01*
X195103993Y-102611576D01*
X195145167Y-102582028D01*
X195173078Y-102541110D01*
X195182903Y-102485674D01*
X195173060Y-102430229D01*
X195145075Y-102389228D01*
X195104268Y-102362867D01*
X195048722Y-102353508D01*
G37*
G36*
X195048722Y-101574251D02*
G01*
X194994296Y-101583366D01*
X194950353Y-101609880D01*
X194923918Y-101650772D01*
X194914541Y-101706325D01*
X194924513Y-101758767D01*
X194954383Y-101802771D01*
X194998092Y-101832738D01*
X195048722Y-101842613D01*
X195103985Y-101832299D01*
X195145167Y-101802679D01*
X195173071Y-101761825D01*
X195182903Y-101706325D01*
X195173060Y-101650881D01*
X195145075Y-101609880D01*
X195104275Y-101583589D01*
X195048722Y-101574251D01*
G37*
G36*
X193983060Y-101014355D02*
G01*
X193883405Y-101022513D01*
X193803975Y-101045009D01*
X193740715Y-101079999D01*
X193690662Y-101127278D01*
X193652233Y-101188286D01*
X193621401Y-101279829D01*
X193611017Y-101378246D01*
X193619213Y-101471025D01*
X193642787Y-101552177D01*
X193681175Y-101623893D01*
X193723816Y-101676396D01*
X193772640Y-101715421D01*
X193828476Y-101742393D01*
X193892842Y-101757616D01*
X193814709Y-101769460D01*
X193751726Y-101791088D01*
X193701122Y-101821424D01*
X193660842Y-101860382D01*
X193616291Y-101930806D01*
X193588206Y-102017493D01*
X193578135Y-102124713D01*
X193587812Y-102250449D01*
X193614623Y-102352271D01*
X193656403Y-102434706D01*
X193712671Y-102501198D01*
X193784673Y-102553818D01*
X193845638Y-102581187D01*
X193911403Y-102597787D01*
X193983060Y-102603460D01*
X194085728Y-102592104D01*
X194183278Y-102558031D01*
X194248143Y-102518861D01*
X194299191Y-102474130D01*
X194338250Y-102423667D01*
X194365765Y-102366720D01*
X194382341Y-102305711D01*
X194387984Y-102239569D01*
X194380000Y-102180151D01*
X194356751Y-102129293D01*
X194330541Y-102097186D01*
X194299517Y-102078853D01*
X194261954Y-102072598D01*
X194226472Y-102080296D01*
X194194085Y-102104472D01*
X194174538Y-102142391D01*
X194168806Y-102173898D01*
X194174219Y-102203905D01*
X194191323Y-102233669D01*
X194223211Y-102264390D01*
X194251323Y-102295704D01*
X194259023Y-102321634D01*
X194250455Y-102371375D01*
X194224112Y-102417809D01*
X194176225Y-102462776D01*
X194122880Y-102492619D01*
X194069750Y-102509860D01*
X194015849Y-102515532D01*
X193935954Y-102505443D01*
X193873092Y-102477138D01*
X193823109Y-102430740D01*
X193784376Y-102362702D01*
X193758106Y-102266413D01*
X193748128Y-102132957D01*
X193756066Y-102023773D01*
X193776761Y-101946372D01*
X193806930Y-101892805D01*
X193843271Y-101857617D01*
X193890933Y-101831242D01*
X193952676Y-101814037D01*
X194032244Y-101807717D01*
X194108997Y-101807717D01*
X194108997Y-101719881D01*
X194032244Y-101719881D01*
X193956331Y-101710629D01*
X193896996Y-101684811D01*
X193850228Y-101642847D01*
X193814296Y-101581876D01*
X193790081Y-101496258D01*
X193780918Y-101378246D01*
X193788936Y-101285702D01*
X193810365Y-101217433D01*
X193842794Y-101167677D01*
X193886090Y-101132502D01*
X193942417Y-101110341D01*
X194015849Y-101102282D01*
X194089554Y-101112180D01*
X194164227Y-101142949D01*
X194215357Y-101177893D01*
X194242280Y-101214739D01*
X194250872Y-101255148D01*
X194241103Y-101290611D01*
X194209106Y-101322467D01*
X194171241Y-101352810D01*
X194150783Y-101384618D01*
X194144168Y-101419279D01*
X194151155Y-101451273D01*
X194173661Y-101482660D01*
X194195953Y-101498009D01*
X194237316Y-101504184D01*
X194275147Y-101498219D01*
X194305440Y-101481034D01*
X194330098Y-101451519D01*
X194348391Y-101406076D01*
X194355102Y-101345457D01*
X194349910Y-101288697D01*
X194334244Y-101233099D01*
X194307475Y-101177845D01*
X194272009Y-101129176D01*
X194230125Y-101089409D01*
X194181263Y-101057769D01*
X194128500Y-101034696D01*
X194063342Y-101019762D01*
X193983060Y-101014355D01*
G37*
D11*
X152016666Y-101024819D02*
X152349999Y-100548628D01*
X152588094Y-101024819D02*
X152588094Y-100024819D01*
X152588094Y-100024819D02*
X152207142Y-100024819D01*
X152207142Y-100024819D02*
X152111904Y-100072438D01*
X152111904Y-100072438D02*
X152064285Y-100120057D01*
X152064285Y-100120057D02*
X152016666Y-100215295D01*
X152016666Y-100215295D02*
X152016666Y-100358152D01*
X152016666Y-100358152D02*
X152064285Y-100453390D01*
X152064285Y-100453390D02*
X152111904Y-100501009D01*
X152111904Y-100501009D02*
X152207142Y-100548628D01*
X152207142Y-100548628D02*
X152588094Y-100548628D01*
X151159523Y-100358152D02*
X151159523Y-101024819D01*
X151397618Y-99977200D02*
X151635713Y-100691485D01*
X151635713Y-100691485D02*
X151016666Y-100691485D01*
X173086666Y-89309819D02*
X173419999Y-88833628D01*
X173658094Y-89309819D02*
X173658094Y-88309819D01*
X173658094Y-88309819D02*
X173277142Y-88309819D01*
X173277142Y-88309819D02*
X173181904Y-88357438D01*
X173181904Y-88357438D02*
X173134285Y-88405057D01*
X173134285Y-88405057D02*
X173086666Y-88500295D01*
X173086666Y-88500295D02*
X173086666Y-88643152D01*
X173086666Y-88643152D02*
X173134285Y-88738390D01*
X173134285Y-88738390D02*
X173181904Y-88786009D01*
X173181904Y-88786009D02*
X173277142Y-88833628D01*
X173277142Y-88833628D02*
X173658094Y-88833628D01*
X172753332Y-88309819D02*
X172134285Y-88309819D01*
X172134285Y-88309819D02*
X172467618Y-88690771D01*
X172467618Y-88690771D02*
X172324761Y-88690771D01*
X172324761Y-88690771D02*
X172229523Y-88738390D01*
X172229523Y-88738390D02*
X172181904Y-88786009D01*
X172181904Y-88786009D02*
X172134285Y-88881247D01*
X172134285Y-88881247D02*
X172134285Y-89119342D01*
X172134285Y-89119342D02*
X172181904Y-89214580D01*
X172181904Y-89214580D02*
X172229523Y-89262200D01*
X172229523Y-89262200D02*
X172324761Y-89309819D01*
X172324761Y-89309819D02*
X172610475Y-89309819D01*
X172610475Y-89309819D02*
X172705713Y-89262200D01*
X172705713Y-89262200D02*
X172753332Y-89214580D01*
X200006666Y-80924819D02*
X200339999Y-80448628D01*
X200578094Y-80924819D02*
X200578094Y-79924819D01*
X200578094Y-79924819D02*
X200197142Y-79924819D01*
X200197142Y-79924819D02*
X200101904Y-79972438D01*
X200101904Y-79972438D02*
X200054285Y-80020057D01*
X200054285Y-80020057D02*
X200006666Y-80115295D01*
X200006666Y-80115295D02*
X200006666Y-80258152D01*
X200006666Y-80258152D02*
X200054285Y-80353390D01*
X200054285Y-80353390D02*
X200101904Y-80401009D01*
X200101904Y-80401009D02*
X200197142Y-80448628D01*
X200197142Y-80448628D02*
X200578094Y-80448628D01*
X199625713Y-80020057D02*
X199578094Y-79972438D01*
X199578094Y-79972438D02*
X199482856Y-79924819D01*
X199482856Y-79924819D02*
X199244761Y-79924819D01*
X199244761Y-79924819D02*
X199149523Y-79972438D01*
X199149523Y-79972438D02*
X199101904Y-80020057D01*
X199101904Y-80020057D02*
X199054285Y-80115295D01*
X199054285Y-80115295D02*
X199054285Y-80210533D01*
X199054285Y-80210533D02*
X199101904Y-80353390D01*
X199101904Y-80353390D02*
X199673332Y-80924819D01*
X199673332Y-80924819D02*
X199054285Y-80924819D01*
X196326666Y-100274819D02*
X196659999Y-99798628D01*
X196898094Y-100274819D02*
X196898094Y-99274819D01*
X196898094Y-99274819D02*
X196517142Y-99274819D01*
X196517142Y-99274819D02*
X196421904Y-99322438D01*
X196421904Y-99322438D02*
X196374285Y-99370057D01*
X196374285Y-99370057D02*
X196326666Y-99465295D01*
X196326666Y-99465295D02*
X196326666Y-99608152D01*
X196326666Y-99608152D02*
X196374285Y-99703390D01*
X196374285Y-99703390D02*
X196421904Y-99751009D01*
X196421904Y-99751009D02*
X196517142Y-99798628D01*
X196517142Y-99798628D02*
X196898094Y-99798628D01*
X195374285Y-100274819D02*
X195945713Y-100274819D01*
X195659999Y-100274819D02*
X195659999Y-99274819D01*
X195659999Y-99274819D02*
X195755237Y-99417676D01*
X195755237Y-99417676D02*
X195850475Y-99512914D01*
X195850475Y-99512914D02*
X195945713Y-99560533D01*
D12*
X153611520Y-76358809D02*
X153097473Y-76358809D01*
X153097473Y-76358809D02*
X153036997Y-76328571D01*
X153036997Y-76328571D02*
X153006759Y-76298333D01*
X153006759Y-76298333D02*
X152976520Y-76237857D01*
X152976520Y-76237857D02*
X152976520Y-76116904D01*
X152976520Y-76116904D02*
X153006759Y-76056428D01*
X153006759Y-76056428D02*
X153036997Y-76026190D01*
X153036997Y-76026190D02*
X153097473Y-75995952D01*
X153097473Y-75995952D02*
X153611520Y-75995952D01*
X152976520Y-75360952D02*
X152976520Y-75723809D01*
X152976520Y-75542381D02*
X153611520Y-75542381D01*
X153611520Y-75542381D02*
X153520806Y-75602857D01*
X153520806Y-75602857D02*
X153460330Y-75663333D01*
X153460330Y-75663333D02*
X153430092Y-75723809D01*
%TO.C,R4*%
D13*
X146360000Y-95470000D02*
G75*
G02*
X146300000Y-95470000I-30000J0D01*
G01*
X146300000Y-95470000D02*
G75*
G02*
X146360000Y-95470000I30000J0D01*
G01*
D14*
X148670000Y-95430000D02*
X148670000Y-97710000D01*
X155150000Y-95430000D02*
X148670000Y-95430000D01*
X155150000Y-97710000D02*
X155150000Y-95430000D01*
X148670000Y-97710000D02*
X155150000Y-97710000D01*
X155150000Y-96570000D02*
X155910000Y-96570000D01*
X148550000Y-96570000D02*
X147790000Y-96570000D01*
%TO.C,R3*%
D13*
X167430000Y-83755000D02*
G75*
G02*
X167370000Y-83755000I-30000J0D01*
G01*
X167370000Y-83755000D02*
G75*
G02*
X167430000Y-83755000I30000J0D01*
G01*
D14*
X169740000Y-83715000D02*
X169740000Y-85995000D01*
X176220000Y-83715000D02*
X169740000Y-83715000D01*
X176220000Y-85995000D02*
X176220000Y-83715000D01*
X169740000Y-85995000D02*
X176220000Y-85995000D01*
X176220000Y-84855000D02*
X176980000Y-84855000D01*
X169620000Y-84855000D02*
X168860000Y-84855000D01*
%TO.C,R2*%
X203140000Y-84470000D02*
X203900000Y-84470000D01*
X196540000Y-84470000D02*
X195780000Y-84470000D01*
X203020000Y-83330000D02*
X196540000Y-83330000D01*
X196540000Y-83330000D02*
X196540000Y-85610000D01*
X196540000Y-85610000D02*
X203020000Y-85610000D01*
X203020000Y-85610000D02*
X203020000Y-83330000D01*
D13*
X205390000Y-85570000D02*
G75*
G02*
X205330000Y-85570000I-30000J0D01*
G01*
X205330000Y-85570000D02*
G75*
G02*
X205390000Y-85570000I30000J0D01*
G01*
%TO.C,R1*%
D14*
X192860000Y-95820000D02*
X192100000Y-95820000D01*
X199460000Y-95820000D02*
X200220000Y-95820000D01*
X192980000Y-96960000D02*
X199460000Y-96960000D01*
X199460000Y-96960000D02*
X199460000Y-94680000D01*
X199460000Y-94680000D02*
X192980000Y-94680000D01*
X192980000Y-94680000D02*
X192980000Y-96960000D01*
D13*
X190670000Y-94720000D02*
G75*
G02*
X190610000Y-94720000I-30000J0D01*
G01*
X190610000Y-94720000D02*
G75*
G02*
X190670000Y-94720000I30000J0D01*
G01*
%TO.C,U1*%
D15*
X149975000Y-86014000D02*
X136005000Y-86014000D01*
X151880000Y-84109000D02*
X151880000Y-66964000D01*
X134100000Y-84109000D02*
X134100000Y-66964000D01*
X147485000Y-65059000D02*
X147481272Y-64048728D01*
D16*
X136005000Y-65059000D02*
X149975000Y-65059000D01*
X136005000Y-65059000D02*
X149975000Y-65059000D01*
D15*
X136005000Y-65059000D02*
X149975000Y-65059000D01*
X138486000Y-64049000D02*
X138486000Y-65059000D01*
X146981272Y-63549000D02*
X138986000Y-63549000D01*
X151880000Y-84109000D02*
G75*
G02*
X149975000Y-86014000I-1905001J1D01*
G01*
X136005000Y-86014000D02*
G75*
G02*
X134100000Y-84109000I1J1905001D01*
G01*
X149975000Y-65059000D02*
G75*
G02*
X151880000Y-66964000I0J-1905000D01*
G01*
X134100000Y-66964000D02*
G75*
G02*
X136005000Y-65059000I1905000J0D01*
G01*
X146981272Y-63549000D02*
G75*
G02*
X147481300Y-64048728I28J-500000D01*
G01*
X138486000Y-64049000D02*
G75*
G02*
X138986000Y-63549000I500000J0D01*
G01*
D17*
X151099000Y-66230000D02*
G75*
G02*
X150595000Y-66230000I-252000J0D01*
G01*
X150595000Y-66230000D02*
G75*
G02*
X151099000Y-66230000I252000J0D01*
G01*
X152242000Y-65350000D02*
G75*
G02*
X151738000Y-65350000I-252000J0D01*
G01*
X151738000Y-65350000D02*
G75*
G02*
X152242000Y-65350000I252000J0D01*
G01*
%TD*%
M02*
