%TF.GenerationSoftware,KiCad,Pcbnew,10.0.3*%
%TF.CreationDate,2026-07-02T08:33:58-04:00*%
%TF.ProjectId,the next stop is,74686520-6e65-4787-9420-73746f702069,rev?*%
%TF.SameCoordinates,Original*%
%TF.FileFunction,Profile,NP*%
%FSLAX46Y46*%
G04 Gerber Fmt 4.6, Leading zero omitted, Abs format (unit mm)*
G04 Created by KiCad (PCBNEW 10.0.3) date 2026-07-02 08:33:58*
%MOMM*%
%LPD*%
G01*
G04 APERTURE LIST*
%ADD10C,0.167500*%
%TA.AperFunction,Profile*%
%ADD11C,0.167500*%
%TD*%
G04 APERTURE END LIST*
D10*
X131995289Y-65389080D02*
X131996901Y-65383694D01*
X131998584Y-65378351D01*
X132000336Y-65373050D01*
X132002159Y-65367790D01*
X132004052Y-65362572D01*
X132006015Y-65357394D01*
X132008048Y-65352257D01*
X132010151Y-65347159D01*
X132012325Y-65342100D01*
X132014568Y-65337080D01*
X132016882Y-65332098D01*
X132019266Y-65327153D01*
X132021720Y-65322246D01*
X132024246Y-65317375D01*
X132026842Y-65312541D01*
X132029509Y-65307743D01*
X132032248Y-65302980D01*
X132035059Y-65298252D01*
X132037941Y-65293560D01*
X132040896Y-65288902D01*
X132043924Y-65284278D01*
X132047024Y-65279688D01*
X132050198Y-65275131D01*
X132053446Y-65270608D01*
X132056769Y-65266118D01*
X132060166Y-65261661D01*
X132063638Y-65257237D01*
X132067186Y-65252846D01*
X132070811Y-65248486D01*
X132074512Y-65244159D01*
X132078291Y-65239864D01*
X132082148Y-65235601D01*
X132086083Y-65231370D01*
X132090098Y-65227171D01*
X132094192Y-65223004D01*
X132098367Y-65218868D01*
X132102623Y-65214764D01*
X132106961Y-65210692D01*
X132111381Y-65206652D01*
X132115885Y-65202644D01*
X132120472Y-65198668D01*
X132125144Y-65194724D01*
X132129902Y-65190812D01*
X132134745Y-65186932D01*
X132139676Y-65183085D01*
X132144693Y-65179271D01*
X132149799Y-65175490D01*
X132154994Y-65171742D01*
X132160279Y-65168028D01*
X132165654Y-65164347D01*
X132171121Y-65160700D01*
X132176679Y-65157088D01*
X132182330Y-65153510D01*
X132188074Y-65149968D01*
X132193913Y-65146461D01*
X132199846Y-65142990D01*
X132205875Y-65139555D01*
X132212000Y-65136157D01*
X132218222Y-65132796D01*
X132224541Y-65129473D01*
X132230958Y-65126189D01*
X132237474Y-65122943D01*
X132244089Y-65119737D01*
X132250803Y-65116571D01*
X132257618Y-65113445D01*
X132264533Y-65110361D01*
X132271549Y-65107319D01*
X132278666Y-65104319D01*
X132285885Y-65101363D01*
X132293206Y-65098451D01*
X132300628Y-65095584D01*
X132308153Y-65092763D01*
X132315779Y-65089988D01*
X132323507Y-65087260D01*
X132331337Y-65084581D01*
X132339268Y-65081951D01*
X132347300Y-65079371D01*
X132355432Y-65076842D01*
X132363664Y-65074364D01*
X132371994Y-65071940D01*
X132380422Y-65069570D01*
X132388947Y-65067255D01*
X132397566Y-65064995D01*
X132406279Y-65062794D01*
X132415082Y-65060650D01*
X132423975Y-65058566D01*
X132432954Y-65056543D01*
X132442015Y-65054582D01*
X132451157Y-65052684D01*
X132460374Y-65050850D01*
X132469662Y-65049083D01*
X132479016Y-65047383D01*
X132488431Y-65045752D01*
X132497898Y-65044190D01*
X132507411Y-65042701D01*
X132516960Y-65041285D01*
X132526535Y-65039944D01*
X132536124Y-65038679D01*
X132545713Y-65037492D01*
X132555285Y-65036386D01*
X132564820Y-65035361D01*
X132574296Y-65034419D01*
X132583683Y-65033563D01*
X132592946Y-65032795D01*
X132602041Y-65032116D01*
X132610911Y-65031528D01*
X132619479Y-65031033D01*
X132627641Y-65030635D01*
X132635237Y-65030333D01*
X132642008Y-65030129D01*
X132647439Y-65030023D01*
X132650000Y-65030000D01*
X223250000Y-64960000D02*
X223255220Y-64960010D01*
X223260415Y-64960040D01*
X223265579Y-64960090D01*
X223270720Y-64960159D01*
X223275830Y-64960248D01*
X223280916Y-64960357D01*
X223285972Y-64960485D01*
X223291004Y-64960632D01*
X223296007Y-64960798D01*
X223300986Y-64960984D01*
X223305936Y-64961188D01*
X223310862Y-64961412D01*
X223315759Y-64961654D01*
X223320633Y-64961915D01*
X223325478Y-64962194D01*
X223330300Y-64962492D01*
X223335093Y-64962809D01*
X223339864Y-64963144D01*
X223344607Y-64963496D01*
X223349326Y-64963868D01*
X223354018Y-64964257D01*
X223358687Y-64964664D01*
X223363329Y-64965089D01*
X223367948Y-64965532D01*
X223372541Y-64965992D01*
X223377110Y-64966470D01*
X223381654Y-64966966D01*
X223386174Y-64967479D01*
X223390669Y-64968009D01*
X223395141Y-64968556D01*
X223399587Y-64969121D01*
X223404011Y-64969703D01*
X223408409Y-64970302D01*
X223412785Y-64970917D01*
X223417137Y-64971550D01*
X223421466Y-64972199D01*
X223425770Y-64972865D01*
X223430052Y-64973548D01*
X223434310Y-64974247D01*
X223438546Y-64974962D01*
X223442758Y-64975694D01*
X223446948Y-64976442D01*
X223451115Y-64977207D01*
X223455259Y-64977987D01*
X223459381Y-64978784D01*
X223463481Y-64979597D01*
X223467557Y-64980425D01*
X223471613Y-64981270D01*
X223475645Y-64982130D01*
X223479656Y-64983006D01*
X223483645Y-64983898D01*
X223487612Y-64984805D01*
X223491558Y-64985727D01*
X223495482Y-64986666D01*
X223499385Y-64987619D01*
X223503266Y-64988588D01*
X223507126Y-64989572D01*
X223510965Y-64990572D01*
X223514783Y-64991587D01*
X223518580Y-64992616D01*
X223522356Y-64993661D01*
X223526112Y-64994721D01*
X223529847Y-64995795D01*
X223533561Y-64996885D01*
X223537255Y-64997989D01*
X223540929Y-64999108D01*
X223544583Y-65000242D01*
X223548216Y-65001391D01*
X223551830Y-65002554D01*
X223555423Y-65003731D01*
X223558997Y-65004924D01*
X223562551Y-65006130D01*
X223566086Y-65007351D01*
X223569601Y-65008587D01*
X223573096Y-65009836D01*
X223576572Y-65011100D01*
X223580030Y-65012379D01*
X223583467Y-65013671D01*
X223586886Y-65014978D01*
X223590286Y-65016299D01*
X223593668Y-65017634D01*
X223597029Y-65018982D01*
X223600374Y-65020345D01*
X223603698Y-65021722D01*
X223607005Y-65023113D01*
X223610293Y-65024518D01*
X223613563Y-65025937D01*
X223616815Y-65027369D01*
X223620049Y-65028816D01*
X223623264Y-65030275D01*
X223626462Y-65031750D01*
X223629641Y-65033237D01*
X223632804Y-65034739D01*
X223635947Y-65036253D01*
X223639074Y-65037782D01*
X223642183Y-65039324D01*
X223645275Y-65040880D01*
X223648349Y-65042450D01*
X223651407Y-65044033D01*
X223654445Y-65045629D01*
X223657469Y-65047240D01*
X223660474Y-65048863D01*
X223663463Y-65050501D01*
X223666434Y-65052151D01*
X223669390Y-65053816D01*
X223672327Y-65055493D01*
X223675250Y-65057185D01*
X223678154Y-65058889D01*
X223683914Y-65062338D01*
X223689609Y-65065841D01*
X223695239Y-65069398D01*
X223700804Y-65073008D01*
X223706306Y-65076672D01*
X223711745Y-65080390D01*
X223717120Y-65084161D01*
X223722434Y-65087986D01*
X223727685Y-65091864D01*
X223732875Y-65095797D01*
X223738005Y-65099783D01*
X223743074Y-65103823D01*
X223748082Y-65107917D01*
X223753032Y-65112066D01*
X223757922Y-65116269D01*
X223762753Y-65120526D01*
X223767526Y-65124838D01*
X223772240Y-65129206D01*
X223776897Y-65133628D01*
X223781497Y-65138106D01*
X223786039Y-65142639D01*
X223790524Y-65147228D01*
X223794953Y-65151873D01*
X223799325Y-65156575D01*
X223803641Y-65161333D01*
X223807901Y-65166148D01*
X223812105Y-65171021D01*
X223816254Y-65175951D01*
X223820348Y-65180939D01*
X223824386Y-65185985D01*
X223828369Y-65191091D01*
X223832297Y-65196255D01*
X223836170Y-65201479D01*
X223839988Y-65206762D01*
X223843752Y-65212106D01*
X223847460Y-65217510D01*
X223851114Y-65222976D01*
X223854713Y-65228503D01*
X223858258Y-65234092D01*
X223861747Y-65239744D01*
X223865182Y-65245458D01*
X223868561Y-65251236D01*
X223871886Y-65257077D01*
X223875156Y-65262983D01*
X223878370Y-65268954D01*
X223881529Y-65274989D01*
X223884632Y-65281091D01*
X223887680Y-65287258D01*
X223890671Y-65293493D01*
X223893607Y-65299794D01*
X223896486Y-65306163D01*
X223899308Y-65312600D01*
X223902074Y-65319106D01*
X223904782Y-65325681D01*
X223907433Y-65332326D01*
X223910026Y-65339040D01*
X223912561Y-65345826D01*
X223915037Y-65352682D01*
X223917454Y-65359610D01*
X223919813Y-65366609D01*
X223922111Y-65373681D01*
X223924350Y-65380826D01*
X223926528Y-65388044D01*
X223928645Y-65395336D01*
X223930700Y-65402702D01*
X223932694Y-65410142D01*
X223934625Y-65417658D01*
X223936494Y-65425248D01*
X223938299Y-65432914D01*
X223940040Y-65440656D01*
X223941717Y-65448474D01*
X223943329Y-65456368D01*
X223944875Y-65464339D01*
X223946356Y-65472387D01*
X223947769Y-65480512D01*
X223949115Y-65488714D01*
X223950394Y-65496993D01*
X223951604Y-65505350D01*
X223952744Y-65513784D01*
X223953815Y-65522295D01*
X223954816Y-65530884D01*
X223955746Y-65539549D01*
X223956604Y-65548292D01*
X223957389Y-65557111D01*
X223958102Y-65566007D01*
X223958742Y-65574978D01*
X223959307Y-65584025D01*
X223959797Y-65593147D01*
X223960212Y-65602343D01*
X223960551Y-65611613D01*
X223960813Y-65620955D01*
X223960998Y-65630369D01*
X223961106Y-65639853D01*
X223961134Y-65649407D01*
X223961084Y-65659028D01*
X223960955Y-65668715D01*
X223960745Y-65678467D01*
X223960455Y-65688281D01*
X223960085Y-65698155D01*
X223959633Y-65708086D01*
X223959099Y-65718073D01*
X223958484Y-65728110D01*
X223957787Y-65738197D01*
X223957008Y-65748327D01*
X223956148Y-65758498D01*
X223955205Y-65768703D01*
X223954180Y-65778939D01*
X223953075Y-65789199D01*
X223951889Y-65799476D01*
X223950622Y-65809762D01*
X223949278Y-65820050D01*
X223947855Y-65830328D01*
X223946357Y-65840587D01*
X223944785Y-65850814D01*
X223943142Y-65860993D01*
X223941431Y-65871108D01*
X223939656Y-65881140D01*
X223937822Y-65891063D01*
X223935936Y-65900850D01*
X223934005Y-65910467D01*
X223932041Y-65919870D01*
X223930056Y-65929004D01*
X223928071Y-65937799D01*
X223926110Y-65946155D01*
X223924214Y-65953929D01*
X223922448Y-65960889D01*
X223920938Y-65966603D01*
X223920000Y-65970000D01*
X211440000Y-105720000D02*
X211446175Y-105719990D01*
X211452331Y-105719960D01*
X211458473Y-105719910D01*
X211464596Y-105719841D01*
X211470705Y-105719751D01*
X211476794Y-105719642D01*
X211482871Y-105719513D01*
X211488928Y-105719365D01*
X211494972Y-105719197D01*
X211500996Y-105719010D01*
X211507007Y-105718803D01*
X211512999Y-105718577D01*
X211518978Y-105718331D01*
X211524938Y-105718066D01*
X211530885Y-105717782D01*
X211536813Y-105717478D01*
X211542728Y-105717156D01*
X211548623Y-105716814D01*
X211554507Y-105716453D01*
X211560371Y-105716073D01*
X211566223Y-105715675D01*
X211572055Y-105715257D01*
X211577876Y-105714820D01*
X211583677Y-105714365D01*
X211589466Y-105713891D01*
X211595236Y-105713398D01*
X211600994Y-105712886D01*
X211606733Y-105712356D01*
X211612460Y-105711807D01*
X211618168Y-105711240D01*
X211623865Y-105710653D01*
X211629542Y-105710049D01*
X211635208Y-105709426D01*
X211640855Y-105708785D01*
X211646491Y-105708125D01*
X211652107Y-105707448D01*
X211663299Y-105706037D01*
X211674430Y-105704553D01*
X211685502Y-105702998D01*
X211696514Y-105701370D01*
X211707467Y-105699670D01*
X211718361Y-105697899D01*
X211729197Y-105696056D01*
X211739975Y-105694143D01*
X211750694Y-105692158D01*
X211761356Y-105690104D01*
X211771961Y-105687979D01*
X211782508Y-105685785D01*
X211792999Y-105683521D01*
X211803434Y-105681187D01*
X211813812Y-105678785D01*
X211824134Y-105676314D01*
X211834401Y-105673774D01*
X211844612Y-105671165D01*
X211854768Y-105668489D01*
X211864870Y-105665744D01*
X211874917Y-105662932D01*
X211884909Y-105660052D01*
X211894848Y-105657105D01*
X211904733Y-105654091D01*
X211914564Y-105651010D01*
X211924342Y-105647861D01*
X211934067Y-105644647D01*
X211943739Y-105641366D01*
X211953358Y-105638018D01*
X211962925Y-105634605D01*
X211972440Y-105631125D01*
X211981903Y-105627580D01*
X211991314Y-105623969D01*
X212000674Y-105620292D01*
X212009982Y-105616551D01*
X212019239Y-105612743D01*
X212028444Y-105608871D01*
X212037600Y-105604934D01*
X212046704Y-105600931D01*
X212055758Y-105596864D01*
X212064761Y-105592732D01*
X212073715Y-105588536D01*
X212082618Y-105584275D01*
X212091471Y-105579950D01*
X212100275Y-105575560D01*
X212109029Y-105571106D01*
X212117733Y-105566588D01*
X212126388Y-105562006D01*
X212134994Y-105557360D01*
X212143550Y-105552650D01*
X212152058Y-105547876D01*
X212160516Y-105543039D01*
X212168925Y-105538138D01*
X212177285Y-105533173D01*
X212185596Y-105528145D01*
X212193858Y-105523053D01*
X212202072Y-105517897D01*
X212210237Y-105512679D01*
X212218353Y-105507397D01*
X212226420Y-105502052D01*
X212234438Y-105496644D01*
X212242408Y-105491172D01*
X212250328Y-105485638D01*
X212258200Y-105480041D01*
X212266023Y-105474380D01*
X212273797Y-105468658D01*
X212281522Y-105462872D01*
X212289198Y-105457024D01*
X212296825Y-105451113D01*
X212304402Y-105445140D01*
X212311930Y-105439104D01*
X212319408Y-105433007D01*
X212326837Y-105426847D01*
X212334215Y-105420625D01*
X212341544Y-105414342D01*
X212348823Y-105407996D01*
X212356051Y-105401590D01*
X212363228Y-105395121D01*
X212370355Y-105388592D01*
X212377431Y-105382002D01*
X212384455Y-105375351D01*
X212391427Y-105368639D01*
X212398348Y-105361867D01*
X212405216Y-105355036D01*
X212412032Y-105348144D01*
X212418795Y-105341193D01*
X212425505Y-105334183D01*
X212432161Y-105327114D01*
X212438762Y-105319987D01*
X212445310Y-105312801D01*
X212451802Y-105305559D01*
X212458239Y-105298259D01*
X212464620Y-105290903D01*
X212470944Y-105283491D01*
X212477211Y-105276024D01*
X212483421Y-105268502D01*
X212489572Y-105260926D01*
X212495665Y-105253297D01*
X212501698Y-105245615D01*
X212507670Y-105237882D01*
X212513582Y-105230099D01*
X212519431Y-105222266D01*
X212525219Y-105214385D01*
X212530942Y-105206456D01*
X212536601Y-105198482D01*
X212542195Y-105190463D01*
X212547722Y-105182401D01*
X212553182Y-105174298D01*
X212558573Y-105166156D01*
X212563895Y-105157975D01*
X212569146Y-105149759D01*
X212574324Y-105141510D01*
X212579428Y-105133230D01*
X212584458Y-105124922D01*
X212589410Y-105116589D01*
X212594285Y-105108233D01*
X212599079Y-105099859D01*
X212603791Y-105091470D01*
X212608419Y-105083071D01*
X212612960Y-105074666D01*
X212617413Y-105066260D01*
X212621775Y-105057859D01*
X212626043Y-105049470D01*
X212630215Y-105041098D01*
X212634286Y-105032753D01*
X212638253Y-105024443D01*
X212642113Y-105016179D01*
X212645861Y-105007971D01*
X212649492Y-104999834D01*
X212653000Y-104991782D01*
X212656380Y-104983835D01*
X212659623Y-104976013D01*
X212662722Y-104968342D01*
X212665665Y-104960856D01*
X212668439Y-104953593D01*
X212671030Y-104946607D01*
X212673414Y-104939969D01*
X212675563Y-104933779D01*
X212677429Y-104928196D01*
X212678934Y-104923503D01*
X212680000Y-104920000D01*
X120670000Y-104320000D02*
X120668195Y-104326198D01*
X120666416Y-104332379D01*
X120664665Y-104338535D01*
X120662940Y-104344673D01*
X120661243Y-104350787D01*
X120659571Y-104356884D01*
X120657926Y-104362956D01*
X120656307Y-104369011D01*
X120654714Y-104375043D01*
X120653147Y-104381056D01*
X120651607Y-104387047D01*
X120650092Y-104393020D01*
X120648603Y-104398970D01*
X120647140Y-104404902D01*
X120645702Y-104410811D01*
X120644289Y-104416703D01*
X120642903Y-104422573D01*
X120641541Y-104428424D01*
X120640204Y-104434254D01*
X120638892Y-104440066D01*
X120637606Y-104445856D01*
X120636344Y-104451629D01*
X120635107Y-104457380D01*
X120633894Y-104463113D01*
X120632707Y-104468825D01*
X120631543Y-104474520D01*
X120630404Y-104480193D01*
X120629289Y-104485849D01*
X120628198Y-104491484D01*
X120627131Y-104497102D01*
X120626088Y-104502699D01*
X120625069Y-104508278D01*
X120624074Y-104513837D01*
X120623103Y-104519379D01*
X120622155Y-104524901D01*
X120621230Y-104530406D01*
X120620329Y-104535890D01*
X120619451Y-104541357D01*
X120618596Y-104546805D01*
X120617765Y-104552235D01*
X120616956Y-104557646D01*
X120616170Y-104563040D01*
X120615407Y-104568415D01*
X120614667Y-104573772D01*
X120613950Y-104579111D01*
X120613255Y-104584433D01*
X120612583Y-104589735D01*
X120611932Y-104595021D01*
X120611305Y-104600288D01*
X120610699Y-104605539D01*
X120610116Y-104610771D01*
X120609554Y-104615986D01*
X120609015Y-104621183D01*
X120608498Y-104626364D01*
X120608002Y-104631526D01*
X120607528Y-104636672D01*
X120607076Y-104641800D01*
X120606645Y-104646911D01*
X120606236Y-104652005D01*
X120605848Y-104657083D01*
X120605481Y-104662143D01*
X120605136Y-104667187D01*
X120604812Y-104672213D01*
X120604508Y-104677223D01*
X120604226Y-104682217D01*
X120603965Y-104687194D01*
X120603725Y-104692154D01*
X120603505Y-104697098D01*
X120603307Y-104702026D01*
X120603128Y-104706937D01*
X120602971Y-104711832D01*
X120602834Y-104716712D01*
X120602717Y-104721574D01*
X120602621Y-104726422D01*
X120602545Y-104731253D01*
X120602489Y-104736068D01*
X120602453Y-104740867D01*
X120602438Y-104745651D01*
X120602442Y-104750419D01*
X120602467Y-104755171D01*
X120602511Y-104759908D01*
X120602575Y-104764630D01*
X120602659Y-104769336D01*
X120602763Y-104774027D01*
X120602886Y-104778702D01*
X120603029Y-104783362D01*
X120603191Y-104788008D01*
X120603373Y-104792638D01*
X120603574Y-104797253D01*
X120603794Y-104801853D01*
X120604034Y-104806439D01*
X120604293Y-104811009D01*
X120604571Y-104815565D01*
X120604868Y-104820106D01*
X120605185Y-104824633D01*
X120605520Y-104829144D01*
X120605874Y-104833642D01*
X120606247Y-104838125D01*
X120606639Y-104842594D01*
X120607050Y-104847048D01*
X120607480Y-104851489D01*
X120607928Y-104855915D01*
X120608395Y-104860327D01*
X120608880Y-104864725D01*
X120609384Y-104869109D01*
X120609907Y-104873479D01*
X120610448Y-104877836D01*
X120611007Y-104882178D01*
X120611585Y-104886508D01*
X120612181Y-104890822D01*
X120612795Y-104895125D01*
X120613427Y-104899412D01*
X120614078Y-104903687D01*
X120614747Y-104907948D01*
X120615434Y-104912197D01*
X120616139Y-104916430D01*
X120616862Y-104920653D01*
X120617603Y-104924860D01*
X120618362Y-104929056D01*
X120619139Y-104933237D01*
X120619934Y-104937408D01*
X120620747Y-104941563D01*
X120621577Y-104945707D01*
X120622425Y-104949837D01*
X120623292Y-104953956D01*
X120624175Y-104958060D01*
X120625077Y-104962153D01*
X120625996Y-104966232D01*
X120626933Y-104970301D01*
X120627887Y-104974355D01*
X120628860Y-104978398D01*
X120629849Y-104982428D01*
X120630856Y-104986447D01*
X120631881Y-104990451D01*
X120633982Y-104998426D01*
X120636154Y-105006353D01*
X120638395Y-105014232D01*
X120640705Y-105022063D01*
X120643085Y-105029848D01*
X120645534Y-105037586D01*
X120648052Y-105045278D01*
X120650639Y-105052924D01*
X120653295Y-105060525D01*
X120656019Y-105068081D01*
X120658813Y-105075592D01*
X120661675Y-105083060D01*
X120664606Y-105090483D01*
X120667605Y-105097863D01*
X120670673Y-105105200D01*
X120673809Y-105112494D01*
X120677015Y-105119746D01*
X120680288Y-105126956D01*
X120683631Y-105134125D01*
X120687042Y-105141252D01*
X120690522Y-105148338D01*
X120694071Y-105155383D01*
X120697689Y-105162388D01*
X120701376Y-105169353D01*
X120705133Y-105176278D01*
X120708958Y-105183164D01*
X120712853Y-105190010D01*
X120716818Y-105196818D01*
X120720852Y-105203587D01*
X120724957Y-105210317D01*
X120729131Y-105217009D01*
X120733376Y-105223663D01*
X120737691Y-105230280D01*
X120742078Y-105236858D01*
X120746535Y-105243400D01*
X120751063Y-105249904D01*
X120755663Y-105256372D01*
X120760335Y-105262802D01*
X120765078Y-105269196D01*
X120769894Y-105275554D01*
X120774783Y-105281875D01*
X120779744Y-105288160D01*
X120784779Y-105294410D01*
X120789887Y-105300623D01*
X120795069Y-105306800D01*
X120800325Y-105312942D01*
X120805655Y-105319048D01*
X120811061Y-105325119D01*
X120816542Y-105331154D01*
X120822098Y-105337154D01*
X120827730Y-105343118D01*
X120833439Y-105349048D01*
X120839225Y-105354941D01*
X120845087Y-105360800D01*
X120851027Y-105366623D01*
X120857046Y-105372412D01*
X120863142Y-105378164D01*
X120869318Y-105383882D01*
X120875572Y-105389564D01*
X120881907Y-105395211D01*
X120888321Y-105400823D01*
X120894816Y-105406399D01*
X120901392Y-105411939D01*
X120908049Y-105417444D01*
X120914788Y-105422913D01*
X120921610Y-105428346D01*
X120928514Y-105433742D01*
X120935501Y-105439103D01*
X120942572Y-105444428D01*
X120949728Y-105449716D01*
X120956967Y-105454967D01*
X120964292Y-105460182D01*
X120971703Y-105465360D01*
X120979199Y-105470500D01*
X120986781Y-105475603D01*
X120994451Y-105480668D01*
X121002207Y-105485696D01*
X121010051Y-105490685D01*
X121017984Y-105495636D01*
X121026005Y-105500548D01*
X121034114Y-105505421D01*
X121042313Y-105510255D01*
X121050602Y-105515049D01*
X121058981Y-105519803D01*
X121067451Y-105524517D01*
X121076011Y-105529191D01*
X121084662Y-105533824D01*
X121093405Y-105538415D01*
X121102240Y-105542964D01*
X121111167Y-105547472D01*
X121120187Y-105551937D01*
X121129299Y-105556359D01*
X121138504Y-105560737D01*
X121147802Y-105565072D01*
X121157194Y-105569363D01*
X121166680Y-105573608D01*
X121176259Y-105577809D01*
X121185932Y-105581964D01*
X121195699Y-105586073D01*
X121205560Y-105590134D01*
X121215515Y-105594149D01*
X121225564Y-105598116D01*
X121235707Y-105602034D01*
X121245944Y-105605904D01*
X121256275Y-105609724D01*
X121266699Y-105613493D01*
X121277216Y-105617212D01*
X121287827Y-105620880D01*
X121298529Y-105624495D01*
X121309325Y-105628058D01*
X121320211Y-105631568D01*
X121331189Y-105635023D01*
X121342257Y-105638424D01*
X121353415Y-105641769D01*
X121364661Y-105645058D01*
X121375995Y-105648290D01*
X121387416Y-105651464D01*
X121398923Y-105654580D01*
X121410513Y-105657637D01*
X121422187Y-105660633D01*
X121433941Y-105663568D01*
X121445775Y-105666442D01*
X121457686Y-105669253D01*
X121469673Y-105672001D01*
X121481732Y-105674684D01*
X121493861Y-105677302D01*
X121506058Y-105679853D01*
X121518318Y-105682337D01*
X121530640Y-105684753D01*
X121543018Y-105687100D01*
X121555448Y-105689377D01*
X121567927Y-105691582D01*
X121580448Y-105693715D01*
X121593007Y-105695775D01*
X121605596Y-105697760D01*
X121618209Y-105699669D01*
X121630839Y-105701502D01*
X121643475Y-105703256D01*
X121656109Y-105704931D01*
X121668730Y-105706526D01*
X121681326Y-105708039D01*
X121693882Y-105709469D01*
X121706382Y-105710815D01*
X121718809Y-105712074D01*
X121731141Y-105713247D01*
X121743353Y-105714331D01*
X121755416Y-105715325D01*
X121767295Y-105716227D01*
X121778948Y-105717036D01*
X121790321Y-105717750D01*
X121801348Y-105718368D01*
X121811941Y-105718888D01*
X121821978Y-105719309D01*
X121831284Y-105719629D01*
X121839571Y-105719849D01*
X121846297Y-105719969D01*
X121850000Y-105720000D01*
D11*
X223250000Y-64960000D02*
X132650000Y-65030000D01*
X212680000Y-104920000D02*
X223920000Y-65970000D01*
X121850000Y-105720000D02*
X211440000Y-105720000D01*
X131995289Y-65389080D02*
X120670000Y-104320000D01*
M02*
