M48
; DRILL file KiCad 10.0.3 date 2026-07-02T08:34:00
; FORMAT={-:-/ absolute / metric / decimal}
; #@! TF.CreationDate,2026-07-02T08:34:00-04:00
; #@! TF.GenerationSoftware,Kicad,Pcbnew,10.0.3
; #@! TF.FileFunction,Plated,1,2,PTH
FMAT,2
METRIC
; #@! TA.AperFunction,Plated,PTH,ViaDrill
T1C0.300
; #@! TA.AperFunction,Plated,PTH,ComponentDrill
T2C0.889
; #@! TA.AperFunction,Plated,PTH,ComponentDrill
T3C0.900
; #@! TA.AperFunction,Plated,PTH,ComponentDrill
T4C0.914
; #@! TA.AperFunction,Plated,PTH,ComponentDrill
T5C1.000
%
G90
G05
T1
X148.63Y-90.89
X179.93Y-91.36
T2
X135.37Y-67.98
X135.37Y-70.52
X135.37Y-73.06
X135.37Y-75.6
X135.37Y-78.14
X135.37Y-80.68
X135.37Y-83.22
X147.435Y-73.309
X147.435Y-75.214
X150.61Y-67.98
X150.61Y-70.52
X150.61Y-73.06
X150.61Y-75.6
X150.61Y-78.14
X150.61Y-80.68
X150.61Y-83.22
T3
X141.26Y-96.58
X143.8Y-96.58
X162.61Y-84.855
X165.15Y-84.855
X185.96Y-95.82
X188.5Y-95.82
X207.86Y-84.47
X210.4Y-84.47
T4
X146.6Y-96.57
X157.1Y-96.57
X167.67Y-84.855
X178.17Y-84.855
X190.91Y-95.82
X194.59Y-84.47
X201.41Y-95.82
X205.09Y-84.47
T5
X140.09Y-99.55
X140.09Y-102.55
X144.89Y-99.55
X144.89Y-102.55
X161.51Y-87.99
X161.51Y-90.99
X166.31Y-87.99
X166.31Y-90.99
X184.83Y-98.91
X184.83Y-101.91
X189.63Y-98.91
X189.63Y-101.91
X206.72Y-87.57
X206.72Y-90.57
X211.52Y-87.57
X211.52Y-90.57
M30
